<svg width="533" height="501" viewBox="0 0 533 501" fill="none" xmlns="http://www.w3.org/2000/svg">
<rect y="1" width="500" height="500" rx="10" fill="black" fill-opacity="0.86"/>
<path d="M78.25 184.25V131.75H60.75V123H113.25V131.75H95.75V184.25H78.25ZM122 184.25V123H139.5V140.5H174.5V149.25H183.25V184.25H165.75V149.25H139.5V184.25H122ZM200.75 184.25V175.5H192V149.25H200.75V140.5H244.5V149.25H253.25V166.75H209.5V175.5H244.5V184.25H200.75ZM209.5 158H235.75V149.25H209.5V158ZM60.75 276.25V215H78.25V267.5H113.25V276.25H60.75ZM130.75 276.25V267.5H122V258.75H130.75V250H165.75V241.25H130.75V232.5H174.5V241.25H183.25V276.25H130.75ZM139.5 267.5H165.75V258.75H139.5V267.5ZM192 276.25V267.5H235.75V258.75H200.75V250H192V241.25H200.75V232.5H244.5V241.25H209.5V250H244.5V258.75H253.25V267.5H244.5V276.25H192ZM288.25 276.25V241.25H270.75V232.5H288.25V215H305.75V232.5H323.25V241.25H305.75V276.25H288.25ZM52 368.25V307H104.5V315.75H113.25V333.25H104.5V342H113.25V359.5H104.5V368.25H52ZM69.5 333.25H95.75V315.75H69.5V333.25ZM69.5 359.5H95.75V342H69.5V359.5ZM148.25 333.25H157V342H148.25V368.25H130.75V324.5H148.25V333.25ZM183.25 324.5V333.25H157V324.5H183.25ZM200.75 368.25V359.5H192V333.25H200.75V324.5H244.5V333.25H253.25V350.75H209.5V359.5H244.5V368.25H200.75ZM209.5 342H235.75V333.25H209.5V342ZM270.75 368.25V359.5H262V350.75H270.75V342H305.75V333.25H270.75V324.5H314.5V333.25H323.25V368.25H270.75ZM279.5 359.5H305.75V350.75H279.5V359.5ZM358.25 368.25V333.25H340.75V324.5H358.25V307H375.75V324.5H393.25V333.25H375.75V368.25H358.25ZM402 368.25V307H419.5V324.5H454.5V333.25H463.25V368.25H445.75V333.25H419.5V368.25H402Z" fill="white"/>
</svg>
